<svg width="800" height="500" viewBox="0 0 800 500" xmlns="http://www.w3.org/2000/svg">
  <defs>
    <!-- Gradients matching your CSS -->
    <linearGradient id="pipelineGradient" x1="0%" y1="0%" x2="100%" y2="100%">
      <stop offset="0%" style="stop-color:#00c8ff;stop-opacity:1" />
      <stop offset="100%" style="stop-color:#9d4edd;stop-opacity:1" />
    </linearGradient>
    
    <linearGradient id="cardGradient" x1="0%" y1="0%" x2="100%" y2="100%">
      <stop offset="0%" style="stop-color:#1a1a2e;stop-opacity:0.8" />
      <stop offset="100%" style="stop-color:#16213e;stop-opacity:0.9" />
    </linearGradient>
    
    <!-- Filters -->
    <filter id="glow" x="-20%" y="-20%" width="140%" height="140%">
      <feGaussianBlur stdDeviation="5" result="blur" />
      <feComposite in="SourceGraphic" in2="blur" operator="over" />
    </filter>
    
    <filter id="shadow" x="-10%" y="-10%" width="120%" height="130%">
      <feDropShadow dx="0" dy="4" stdDeviation="4" flood-color="#000" flood-opacity="0.3" />
    </filter>
  </defs>
  
  <!-- Transparent background - no background rect -->
  
  <!-- Pipeline Steps (shifted up) -->
  <!-- Upload Dataset -->
  <g transform="translate(50, 130)">
    <rect x="0" y="0" width="120" height="40" rx="20" fill="rgba(20, 26, 41, 0.7)" stroke="url(#pipelineGradient)" stroke-width="2" filter="url(#shadow)"/>
    <text x="60" y="25" text-anchor="middle" fill="white" font-family="Inter, Arial, sans-serif" font-size="12" font-weight="500">Upload</text>
  </g>
  
  <!-- Analyze Data -->
  <g transform="translate(190, 130)">
    <rect x="0" y="0" width="100" height="40" rx="20" fill="rgba(20, 26, 41, 0.7)" stroke="url(#pipelineGradient)" stroke-width="2"/>
    <text x="50" y="25" text-anchor="middle" fill="white" font-family="Inter, Arial, sans-serif" font-size="12" font-weight="500">Analyze</text>
  </g>
  
  <!-- Prepare Dataset -->
  <g transform="translate(310, 130)">
    <rect x="0" y="0" width="110" height="40" rx="20" fill="rgba(20, 26, 41, 0.7)" stroke="url(#pipelineGradient)" stroke-width="2"/>
    <text x="55" y="25" text-anchor="middle" fill="white" font-family="Inter, Arial, sans-serif" font-size="12" font-weight="500">Preprocess</text>
  </g>
  
  <!-- Train Model -->
  <g transform="translate(440, 130)">
    <rect x="0" y="0" width="90" height="40" rx="20" fill="rgba(20, 26, 41, 0.7)" stroke="url(#pipelineGradient)" stroke-width="2"/>
    <text x="45" y="25" text-anchor="middle" fill="white" font-family="Inter, Arial, sans-serif" font-size="12" font-weight="500">Train</text>
  </g>
  
  <!-- Evaluate Model -->
  <g transform="translate(550, 130)">
    <rect x="0" y="0" width="100" height="40" rx="20" fill="rgba(20, 26, 41, 0.7)" stroke="url(#pipelineGradient)" stroke-width="2"/>
    <text x="50" y="25" text-anchor="middle" fill="white" font-family="Inter, Arial, sans-serif" font-size="12" font-weight="500">Evaluate</text>
  </g>
  
  <!-- Deploy Model -->
  <g transform="translate(670, 130)">
    <rect x="0" y="0" width="90" height="40" rx="20" fill="rgba(20, 26, 41, 0.7)" stroke="url(#pipelineGradient)" stroke-width="2"/>
    <text x="45" y="25" text-anchor="middle" fill="white" font-family="Inter, Arial, sans-serif" font-size="12" font-weight="500">Deploy</text>
  </g>
  
  <!-- Arrows between steps -->
  <g stroke="url(#pipelineGradient)" stroke-width="2" fill="url(#pipelineGradient)" opacity="0.8">
    <path d="M 170 150 L 185 150 M 180 145 L 185 150 L 180 155"/>
    <path d="M 290 150 L 305 150 M 300 145 L 305 150 L 300 155"/>
    <path d="M 420 150 L 435 150 M 430 145 L 435 150 L 430 155"/>
    <path d="M 530 150 L 545 150 M 540 145 L 545 150 L 540 155"/>
    <path d="M 650 150 L 665 150 M 660 145 L 665 150 L 660 155"/>
  </g>
  
  <!-- Exact CTA Rocket (shifted upwards) -->
  <g transform="translate(400, 260)" filter="url(#shadow)">
    <!-- Rocket Body -->
    <rect x="-15" y="0" width="30" height="80" rx="15" ry="15" fill="#ffffff" />
    
    <!-- Rocket Window -->
    <circle cx="0" cy="30" r="8" fill="url(#pipelineGradient)" />
    
    <!-- Rocket Top -->
    <path d="M -15 0 L 0 -20 L 15 0 Z" fill="url(#pipelineGradient)" />
    
    <!-- Rocket Fins -->
    <path d="M -15 60 L -30 90 L -15 80 Z" fill="url(#pipelineGradient)" />
    <path d="M 15 60 L 30 90 L 15 80 Z" fill="url(#pipelineGradient)" />
    
    <!-- Rocket Flame -->
    <g filter="url(#glow)">
      <path d="M -10 80 L 0 120 L 10 80 Z" fill="#ff6b6b">
        <animate attributeName="d" values="M -10 80 L 0 110 L 10 80 Z; M -10 80 L 0 130 L 10 80 Z; M -10 80 L 0 110 L 10 80 Z" dur="0.5s" repeatCount="indefinite" />
      </path>
      <path d="M -5 80 L 0 100 L 5 80 Z" fill="#ffb347">
        <animate attributeName="d" values="M -5 80 L 0 100 L 5 80 Z; M -5 80 L 0 120 L 5 80 Z; M -5 80 L 0 100 L 5 80 Z" dur="0.7s" repeatCount="indefinite" />
      </path>
    </g>
    
    <!-- Floating animation for entire rocket -->
    <animateTransform attributeName="transform" type="translate" values="400,260; 400,250; 400,260" dur="3s" repeatCount="indefinite" />
  </g>
  
</svg>
